<svg width="16" height="16" viewBox="0 0 16 16" fill="none" xmlns="http://www.w3.org/2000/svg">
<path d="M14.3133 2.9L13.4199 2.52667V8.54667L15.0399 4.64C15.3133 3.96 14.9999 3.18 14.3133 2.9ZM1.31326 5.36667L4.61992 13.3333C4.71729 13.5757 4.88338 13.7844 5.09776 13.9336C5.31215 14.0828 5.56547 14.1662 5.82659 14.1733C5.99992 14.1733 6.17992 14.14 6.35326 14.0667L11.2666 12.0333C11.7666 11.8267 12.0733 11.3333 12.0866 10.84C12.0933 10.6667 12.0599 10.4733 11.9999 10.3L8.66659 2.33333C8.57267 2.08914 8.40726 1.87896 8.19197 1.73028C7.97669 1.58161 7.72155 1.50135 7.45992 1.5C7.28659 1.5 7.11326 1.54 6.94659 1.6L2.03992 3.63333C1.71376 3.7669 1.454 4.02452 1.31773 4.34956C1.18146 4.67459 1.17986 5.04044 1.31326 5.36667ZM12.0799 2.83333C12.0799 2.47971 11.9394 2.14057 11.6894 1.89052C11.4394 1.64048 11.1002 1.5 10.7466 1.5H9.77992L12.0799 7.06" fill="#FF5722"/>
</svg>
